<svg width="2861" height="2834" xmlns="http://www.w3.org/2000/svg" xmlns:xlink="http://www.w3.org/1999/xlink" overflow="hidden"><defs><filter id="fx0" x="-10%" y="-10%" width="120%" height="120%" filterUnits="userSpaceOnUse" primitiveUnits="userSpaceOnUse"><feComponentTransfer color-interpolation-filters="sRGB"><feFuncR type="discrete" tableValues="0 0"/><feFuncG type="discrete" tableValues="0 0"/><feFuncB type="discrete" tableValues="0 0"/><feFuncA type="linear" slope="0.278431" intercept="0"/></feComponentTransfer><feGaussianBlur stdDeviation="5.8995 5.90158"/></filter><filter id="fx1" x="-10%" y="-10%" width="120%" height="120%" filterUnits="userSpaceOnUse" primitiveUnits="userSpaceOnUse"><feComponentTransfer color-interpolation-filters="sRGB"><feFuncR type="discrete" tableValues="0 0"/><feFuncG type="discrete" tableValues="0 0"/><feFuncB type="discrete" tableValues="0 0"/><feFuncA type="linear" slope="0.278431" intercept="0"/></feComponentTransfer><feGaussianBlur stdDeviation="5.8995 5.90158"/></filter><clipPath id="clip2"><rect x="418" y="57" width="2861" height="2834"/></clipPath><clipPath id="clip3"><rect x="418.5" y="344.621" width="298" height="550.694"/></clipPath><clipPath id="clip4"><rect x="0" y="0" width="1135" height="1419"/></clipPath><clipPath id="clip5"><rect x="418.5" y="344.621" width="298" height="550.694"/></clipPath><clipPath id="clip6"><rect x="0" y="0" width="1135" height="1419"/></clipPath></defs><g clip-path="url(#clip2)" transform="translate(-418 -57)"><g clip-path="url(#clip3)" filter="url(#fx0)" transform="matrix(2 0 0 1.9993 1010 56)"><g clip-path="url(#clip4)" transform="matrix(1 0 0 1 0 3.55271e-15)"><path d="M557.334-91.8188C557.334-30.6063 526.728 0 465.515 0L149.607 0C90.1066 0 60.3564-30.6063 60.3564-91.8188L60.3564-912.41C60.3564-974.05 90.7487-1004.87 151.533-1004.87L465.515-1004.87C526.728-1004.87 557.334-974.05 557.334-912.41L557.334-697.952 406.443-697.952 406.443-875.81 210.605-875.81 210.605-129.06 406.443-129.06 406.443-410.295 294.719-410.295 294.719-538.071 557.334-538.071Z" transform="matrix(0.5 0 0 0.500176 413.259 870)"/></g></g><text font-family="Agency FB,Agency FB_MSFontService,sans-serif" font-weight="700" font-stretch="condensed" font-size="1315" transform="matrix(1 0 0 1 1832.46 1772)">G</text><g clip-path="url(#clip5)" filter="url(#fx1)" transform="matrix(2 0 0 1.9993 417 56)"><g clip-path="url(#clip6)" transform="matrix(1 0 0 1 0 3.55271e-15)"><path d="M557.334-91.8188C557.334-30.6063 526.728 0 465.515 0L149.607 0C90.1066 0 60.3564-30.6063 60.3564-91.8188L60.3564-912.41C60.3564-974.05 90.7487-1004.87 151.533-1004.87L465.515-1004.87C526.728-1004.87 557.334-974.05 557.334-912.41L557.334-697.952 406.443-697.952 406.443-875.81 210.605-875.81 210.605-129.06 406.443-129.06 406.443-410.295 294.719-410.295 294.719-538.071 557.334-538.071Z" fill="#FF33CC" transform="matrix(0.5 0 0 0.500176 413.095 870)"/></g></g><text fill="#FF33CC" font-family="Agency FB,Agency FB_MSFontService,sans-serif" font-weight="700" font-stretch="condensed" font-size="1315" transform="matrix(1 0 0 1 1239.13 1772)">G</text></g></svg>